<svg width="512" height="512" xmlns="http://www.w3.org/2000/svg" version="1.1">

 <g>
  <title>Layer 1</title>
  <g id="svg_2"/>
  <path id="svg_4" stroke-linecap="round" stroke-linejoin="round" stroke="#fcfdfd" d="m400.29205,660.86305c-5.653,1.78 -9.27,7.243 -8.962,13.162c8.705,1.5 17.694,0.427 26.304,-1.543c-0.587,-8.657 -9.155,-14.492 -17.342,-11.619z" fill="#fcfdfd"/>
  <path id="svg_5" stroke-linecap="round" stroke-linejoin="round" stroke="#fcfdfd" d="m298.33005,683.75905c-6.531,0.471 -12.822,8.521 -7.311,14.032c7.447,5.406 21.331,-0.378 20.811,-10.148l0,-4.813l-13.5,0.929z" fill="#fcfdfd"/>
  <path id="svg_6" stroke-linecap="round" stroke-linejoin="round" stroke="#fcfdfd" d="m550.22405,647.99305l-12.035,28.587c8.716,1.689 17.718,2.605 26.492,1.25l-12.881,-30.337c-0.383,-0.431 -1.148,-0.189 -1.576,0.5z" fill="#fcfdfd"/>
  <path id="svg_17" stroke-linecap="round" stroke-linejoin="round" stroke="#fff" d="m76.82959,301.86559c-6.494,33.858 14.013,66.771 47.081,76.522c15.492,4.993 38.016,-2.054 47.224,15.22c3.529,13.633 0.534,28.352 -9.169,38.56c-4.144,4.518 -0.213,11.321 5.223,12.128c12.798,-10.04 20.696,-25.305 19.891,-41.551c0.978,-14.924 -8.643,-28.404 -23,-32.594c-19.776,-4.409 -43.689,-1.363 -58.496,-18.243c-11.492,-13.924 -18.304,-31.456 -17.023,-49.465c-3.809,-1.066 -7.817,-1.147 -11.731,-0.577z" fill="#fff"/>
  <path id="svg_19" stroke-linecap="round" stroke-linejoin="round" stroke="#fff" d="m265.32426,162.79559c-1.92,0.821 -3.425,2.306 -3.736,3.687l-22.549,151.143c-2.422,1.833 -2.221,-5.577 -2.82,-7.08l-13.311,-77.747c-3.167,-17.486 -4.419,-22.459 -6.101,-24.25c-4.777,-4.606 -12.666,-1.595 -13.186,5.021l-17.541,72.005l-17.196,-34.529c-3.046,-1.864 -6.846,-2.283 -10.048,-0.701c-6.975,9.271 -13.472,19.036 -18.1,29.675l-60.947,2.346l-52.75,1.337c-1.307,5.169 5.146,4.926 8.75,4.998l112.876,2.595c5.486,-6.82 10.536,-14.06 14.218,-22l19.346,41.25c7.16,5.485 13.928,-3.296 14.265,-10.25l12.249,-50.432c1.242,-5.201 1.845,-6.449 2.417,-5l18.958,102.786c0.912,5.962 7.377,11.51 12.914,6.853c5.831,-14.953 10.396,-30.674 10.889,-46.717l14.059,-86.954l9.069,74.964c-0.295,5.489 3.977,10.082 9.457,10.5c8.624,-3.524 16.936,-8.216 23.321,-15c17.395,0.457 34.783,-0.928 51.999,-3.455c3.398,-5.273 -6.266,-4.847 -9.144,-4.674c-17.32,-2.167 -34.876,-1.874 -52.291,-0.688c-3.058,2.546 -6.432,4.684 -9.94,6.563l-12.993,-117.404c1.089,-6.813 -5.987,-11.974 -12.134,-8.842z" fill="#fff"/>
  <path stroke="#fff" id="svg_20" stroke-linecap="round" stroke-linejoin="round" d="m247.39926,111.70459c-14.591,2.849 -28.158,9.674 -38.764,20.091c-24.938,-4.327 -50.095,5.028 -67.674,23.239c-6.26,7.681 -10.301,16.936 -11.594,26.761c-31.12,1.356 -55.359,26.691 -57.328,57.778c-0.377,9.778 1.816,19.472 6.184,28.229c3.785,4.31 10.801,2.674 12.185,-2.893c-6.537,-13.756 -5.594,-29.82 0.019,-43.978c11.841,-17.054 31.594,-26.936 52.316,-25.636c-1.504,-18.658 8.951,-36.162 25.895,-44.117c12.195,-5.225 25.601,-7.033 38.708,-4.973c9.44,1.442 15.478,-8.913 22.951,-13.215c29.294,-16.844 66.411,-6.772 83.495,22.383c8.836,15.767 0.695,34.644 8.787,50.593c17.846,28.612 55.749,33.699 78.487,57.329c17.894,13.345 19.028,39.491 3.012,55.041c-28.654,28 -72.126,9.055 -105.406,25.556c-41.832,23.524 -77.344,57.538 -98.927,100.403c0.23,-20.502 8.105,-40.684 24.031,-53.597c-12.515,6.104 -22.892,16.103 -28.215,28.97c-5.088,10.366 -12.333,29.901 2.033,36.23c8.903,1.925 11.668,-10.229 16.627,-15.116c25.263,-53.303 79.071,-86.295 137.818,-91.593c24.047,2.635 47.78,-6.217 65.321,-22.874c7.356,-10.15 21.728,-7.03 31.521,-13.441c33.053,-21.296 44.175,-64.627 23.682,-98.185c-7.508,-17.663 -23.295,-30.354 -42.058,-34.394c-6.555,-1.371 -6.026,-10.586 -8.824,-15.5c-19.152,-26.845 -52.843,-39.609 -84.419,-30.1l-6.825,2.766c1.171,3.528 2.797,6.917 5.102,9.834c27.448,-8.438 56.796,2.515 74.565,25.073c2.783,7.444 3.292,15.641 0.672,23.144c13.136,-4.596 27.685,-0.899 37.417,9.049c28.037,27.388 27.233,86.085 -12.941,101.657c-1.623,0.267 -6.44,3.767 -6.734,1.11c3.262,-18.595 -3.273,-37.574 -17.393,-50.106c-21.333,-20.853 -52.244,-27.289 -74.994,-46.113c-16.103,-14.15 -7.406,-36.382 -11.138,-54.715c-11.32,-32.148 -44.178,-51.394 -77.594,-44.69z" fill="#fff"/>
 </g>
</svg>