<?xml version='1.0' encoding='UTF-8'?>
<svg xmlns="http://www.w3.org/2000/svg" version="1.1" viewBox="0 0 1024 1024">
<rect x="0" y="0" width="1024" height="1024" fill="#fcfdfd"/><g>
</g>
<path fill="#334858" d="M 751.455,657.455 C 743.677,664.113 755.887,676.323 762.545,668.545 C 770.323,661.887 758.113,649.677 751.455,657.455 Z" stroke="#334858" stroke-width="1" stroke-linejoin="round" stroke-linecap="round"/>
<path fill="#fcfdfd" d="M 427.462,688.033 C 421.809,689.813 418.192,695.276 418.5,701.195 C 427.205,702.695 436.194,701.622 444.804,699.652 C 444.217,690.995 435.649,685.16 427.462,688.033 Z" stroke="#fcfdfd" stroke-width="1" stroke-linejoin="round" stroke-linecap="round"/>
<path fill="#fcfdfd" d="M 325.5,710.929 C 318.969,711.4 312.678,719.45 318.189,724.961 C 325.636,730.367 339.52,724.583 339,714.813 L 339,710 L 325.5,710.929 Z" stroke="#fcfdfd" stroke-width="1" stroke-linejoin="round" stroke-linecap="round"/>
<path fill="#fcfdfd" d="M 577.394,675.163 L 565.359,703.75 C 574.075,705.439 583.077,706.355 591.851,705 L 578.97,674.663 C 578.587,674.232 577.822,674.474 577.394,675.163 Z" stroke="#fcfdfd" stroke-width="1" stroke-linejoin="round" stroke-linecap="round"/>
<path fill="#334858" d="M 750,707.5 L 750,735 L 763,735 L 763,680 L 750,680 Z" stroke="#334858" stroke-width="1" stroke-linejoin="round" stroke-linecap="round"/>
<path fill="#23788e" d="M 488.425,680.417 C 485.329,682.35 482.749,685.044 481.182,688.34 C 479.961,684.559 479.506,678.39 473.842,680 L 469,680 L 469,735 L 480.838,735 C 479.515,722.055 480.906,708.958 483.317,696.171 C 487.297,690.52 494.467,687.998 501,690.256 L 501,679 C 496.761,678.751 492.517,679.282 488.425,680.417 Z" stroke="#23788e" stroke-width="1" stroke-linejoin="round" stroke-linecap="round"/>
<path fill="#334858" d="M 728.419,680.861 L 723.24,685.633 C 720.982,690.09 719.874,685.14 719.564,682.75 C 718.397,677.843 711.699,680.754 708,680 L 708,735 L 721,735 C 719.235,722.52 720.545,709.776 723.038,697.421 C 725.849,690.068 734.58,690.438 741.094,690.806 L 740.5,679.5 C 736.473,678.462 732.214,679.159 728.419,680.861 Z" stroke="#334858" stroke-width="1" stroke-linejoin="round" stroke-linecap="round"/>
<path fill="#334858" d="M 513,696 L 513,735 L 528,735 L 528,657 L 513,657 Z" stroke="#334858" stroke-width="1" stroke-linejoin="round" stroke-linecap="round"/>
<path fill="#23788e" d="M 375.235,663.119 L 369.985,664.509 C 368.928,669.564 368.38,674.764 369,679.89 C 365.85,680.607 360.916,679.012 359.17,682.329 C 358.759,685.795 359.836,690.29 364.438,689 L 368.838,689 C 367.533,701.934 368.912,715.016 371.3,727.794 C 378.335,735.906 390.047,738.506 399.316,733.084 C 400.258,730.401 398.333,727.68 397.638,725.109 C 392.88,724.882 386.433,728.224 383.149,723.462 C 380.385,712.376 379.023,700.655 381.5,689.5 L 397,688.916 L 397,680 L 381,680 C 381.351,674.237 380.987,668.454 380.25,662.727 L 375.235,663.119 Z" stroke="#23788e" stroke-width="1" stroke-linejoin="round" stroke-linecap="round"/>
<path fill="#334858" d="M 787.386,680.739 C 777.217,684.231 773.639,696.661 780.468,704.966 C 786.497,709.132 792.984,712.707 800,714.824 C 804.225,716.172 805.235,721.558 801.834,724.404 C 794.083,726.865 785.487,725.987 778.995,721.09 L 775,729.324 C 786.755,738.056 802.874,737.116 814.265,727.913 C 820.516,717.825 814.463,704.622 802.709,702.975 C 797.359,701.086 785.912,697.681 791.461,690.033 C 797.982,687.636 805.353,687.906 811.194,691.668 C 814.573,691.654 814.62,686.691 816,684.398 C 807.451,679.019 796.98,677.581 787.386,680.739 Z" stroke="#334858" stroke-width="1" stroke-linejoin="round" stroke-linecap="round"/>
<path fill="#23788e" d="M 314.557,681.379 C 310.992,682.767 306.258,684.503 309.021,689.051 C 310.06,694.276 314.828,690.326 318.173,689.879 C 327.708,684.732 340.457,690.401 339.263,702 C 326.155,701.964 304.951,703.198 304.002,720.218 C 304.512,736.162 326.472,740.322 336.431,730.072 C 338.021,728.463 340.854,726.125 341,729.904 C 342.418,733.757 346.312,736.182 350.346,735.422 C 352.165,719.797 351.551,703.995 348.849,688.498 C 342.07,677.047 325.659,677.636 314.557,681.379 Z M 325.5,710.929 L 339,710 C 341.134,719.015 334.002,727.543 324.754,727 C 316.299,728.147 312.684,716.749 320.273,712.849 L 325.5,710.929 Z" stroke="#23788e" stroke-width="1" stroke-linejoin="round" stroke-linecap="round"/>
<path fill="#23788e" d="M 421.336,680.634 C 398.773,692.274 400.038,724.373 423.447,734.201 C 432.271,736.6 441.622,735.754 450.237,732.686 C 455.875,730.082 455.954,729.989 454.802,727.268 C 453.581,724.781 451.722,720.433 448.374,723.288 C 438.033,728.687 421.395,727.413 418.074,714.257 C 417.729,712.917 417.699,711.525 417.903,710.157 C 430.706,708.632 443.629,707.735 456.5,708.5 C 458.894,696.622 452.275,684.854 441.101,680.166 C 434.578,678.654 427.778,678.81 421.336,680.634 Z M 427.462,688.033 C 435.649,685.16 444.217,690.995 444.804,699.652 C 436.194,701.622 427.205,702.695 418.5,701.195 C 418.192,695.276 421.809,689.813 427.462,688.033 Z" stroke="#23788e" stroke-width="1" stroke-linejoin="round" stroke-linecap="round"/>
<path fill="#334858" d="M 650.487,657.746 C 633.786,662.822 622.804,678.612 623.552,696.052 C 623.586,721.453 646.588,740.681 671.364,735.082 C 679.255,733.886 686.896,731.408 694,727.772 L 694,698.123 C 690.331,697.521 686.624,697.164 682.907,697.16 C 680.54,697.494 680.495,697.693 680.219,709.22 L 679.937,720.94 C 665.233,728.205 647.659,721.826 639.893,707.381 C 634.557,693.82 640.144,678.552 652.432,670.718 C 664.15,666.956 676.973,667.851 687.634,674 C 690.294,671.449 692.518,668.37 693.489,664.814 C 680.824,656.314 665.108,653.404 650.487,657.746 Z" stroke="#334858" stroke-width="1" stroke-linejoin="round" stroke-linecap="round"/>
<path fill="#334858" d="M 570.569,657.889 L 538,734.708 L 552.775,735 L 560.5,716.028 L 596.662,716 L 604.182,735 L 619.218,734.449 L 586.084,657 C 580.908,656.499 575.686,656.968 570.569,657.889 Z M 577.394,675.163 C 577.822,674.474 578.587,674.232 578.97,674.663 L 591.851,705 C 583.077,706.355 574.075,705.439 565.359,703.75 L 577.394,675.163 Z" stroke="#334858" stroke-width="1" stroke-linejoin="round" stroke-linecap="round"/>
<path fill="#23788e" d="M 341.75,434.57 C 335.256,468.428 355.763,501.341 388.831,511.092 C 404.323,516.085 426.847,509.038 436.055,526.312 C 439.584,539.945 436.589,554.664 426.886,564.872 C 422.742,569.39 426.673,576.193 432.109,577 C 444.907,566.96 452.805,551.695 452,535.449 C 452.978,520.525 443.357,507.045 429,502.855 C 409.224,498.446 385.311,501.492 370.504,484.612 C 359.012,470.688 352.2,453.156 353.481,435.147 C 349.672,434.081 345.664,434 341.75,434.57 Z" stroke="#23788e" stroke-width="1" stroke-linejoin="round" stroke-linecap="round"/>
<path fill="#23788e" d="M 208,696 L 208,735 L 218.877,735 L 219.916,681.115 C 220.49,678.907 220.741,679.092 223.314,683.615 L 244.803,718.325 C 249.233,722.342 254.705,717.698 256.5,713.284 L 278.136,679 L 278.5,734.5 L 290,735.1 L 290.5,657.5 L 277.58,657.5 L 253.952,697.3 C 250.043,704.218 249.402,704.903 248.277,703.364 L 220.715,657 L 208,657 Z" stroke="#23788e" stroke-width="1" stroke-linejoin="round" stroke-linecap="round"/>
<path fill="#23788e" d="M 523.285,295.5 C 521.365,296.321 519.86,297.806 519.549,299.187 L 497,450.33 C 494.578,452.163 494.779,444.753 494.18,443.25 L 480.869,365.503 C 477.702,348.017 476.45,343.044 474.768,341.253 C 469.991,336.647 462.102,339.658 461.582,346.274 L 444.041,418.279 L 426.845,383.75 C 423.799,381.886 419.999,381.467 416.797,383.049 C 409.822,392.32 403.325,402.085 398.697,412.724 L 337.75,415.07 L 285,416.407 C 283.693,421.576 290.146,421.333 293.75,421.405 L 406.626,424 C 412.112,417.18 417.162,409.94 420.844,402 L 440.19,443.25 C 447.35,448.735 454.118,439.954 454.455,433 L 466.704,382.568 C 467.946,377.367 468.549,376.119 469.121,377.568 L 488.079,480.354 C 488.991,486.316 495.456,491.864 500.993,487.207 C 506.824,472.254 511.389,456.533 511.882,440.49 L 525.941,353.536 L 535.01,428.5 C 534.715,433.989 538.987,438.582 544.467,439 C 553.091,435.476 561.403,430.784 567.788,424 C 585.183,424.457 602.571,423.072 619.787,420.545 C 623.185,415.272 613.521,415.698 610.643,415.871 C 593.323,413.704 575.767,413.997 558.352,415.183 C 555.294,417.729 551.92,419.867 548.412,421.746 L 535.419,304.342 C 536.508,297.529 529.432,292.368 523.285,295.5 Z" stroke="#23788e" stroke-width="1" stroke-linejoin="round" stroke-linecap="round"/>
<path fill="#23788e" d="M 510.36,244.409 C 495.769,247.258 482.202,254.083 471.596,264.5 C 446.658,260.173 421.501,269.528 403.922,287.739 C 397.662,295.42 393.621,304.675 392.328,314.5 C 361.208,315.856 336.969,341.191 335,372.278 C 334.623,382.056 336.816,391.75 341.184,400.507 C 344.969,404.817 351.985,403.181 353.369,397.614 C 346.832,383.858 347.775,367.794 353.388,353.636 C 365.229,336.582 384.982,326.7 405.704,328 C 404.2,309.342 414.655,291.838 431.599,283.883 C 443.794,278.658 457.2,276.85 470.307,278.91 C 479.747,280.352 485.785,269.997 493.258,265.695 C 522.552,248.851 559.669,258.923 576.753,288.078 C 585.589,303.845 577.448,322.722 585.54,338.671 C 603.386,367.283 641.289,372.37 664.027,396 C 681.921,409.345 683.055,435.491 667.039,451.041 C 638.385,479.041 594.913,460.096 561.633,476.597 C 519.801,500.121 484.289,534.135 462.706,577 C 462.936,556.498 470.811,536.316 486.737,523.403 C 474.222,529.507 463.845,539.506 458.522,552.373 C 453.434,562.739 446.189,582.274 460.555,588.603 C 469.458,590.528 472.223,578.374 477.182,573.487 C 502.445,520.184 556.253,487.192 615,481.894 C 639.047,484.529 662.78,475.677 680.321,459.02 C 687.677,448.87 702.049,451.99 711.842,445.579 C 744.895,424.283 756.017,380.952 735.524,347.394 C 728.016,329.731 712.229,317.04 693.466,313 C 686.911,311.629 687.44,302.414 684.642,297.5 C 665.49,270.655 631.799,257.891 600.223,267.4 L 593.398,270.166 C 594.569,273.694 596.195,277.083 598.5,280 C 625.948,271.562 655.296,282.515 673.065,305.073 C 675.848,312.517 676.357,320.714 673.737,328.217 C 686.873,323.621 701.422,327.318 711.154,337.266 C 739.191,364.654 738.387,423.351 698.213,438.923 C 696.59,439.19 691.773,442.69 691.479,440.033 C 694.741,421.438 688.206,402.459 674.086,389.927 C 652.753,369.074 621.842,362.638 599.092,343.814 C 582.989,329.664 591.686,307.432 587.954,289.099 C 576.634,256.951 543.776,237.705 510.36,244.409 Z" stroke="#23788e" stroke-width="1" stroke-linejoin="round" stroke-linecap="round"/>
<path fill="#fcfdfd" d="M 0,512 L 0,1024 L 1024,1024 L 1024,0 L 0,0 Z M 510.36,244.409 C 543.776,237.705 576.634,256.951 587.954,289.099 C 591.686,307.432 582.989,329.664 599.092,343.814 C 629.167,367.026 675.464,374.556 690.031,414 C 692.298,422.799 693.522,432.059 691.904,441 C 712.891,435.382 728.25,417.346 730.033,395.693 C 734.165,369.626 722.135,343.859 700.136,329.278 C 691.685,325.978 682.34,325.337 673.737,328.217 C 676.357,320.714 675.848,312.517 673.065,305.073 C 655.296,282.515 625.948,271.562 598.5,280 C 596.195,277.083 594.569,273.694 593.398,270.166 C 609.682,264.415 627.336,263.177 643.97,267.82 C 666.318,272.769 683.977,289.734 690.238,311.75 C 703.024,313.97 714.58,320.586 723.722,329.796 C 751.307,358.876 751.88,403.751 726.414,434.704 C 717.952,443.29 707.066,449.112 695.187,451.164 C 683.848,451.435 678.297,462.343 670.132,468.403 C 646.39,480.248 619.758,486.273 593.5,482.46 C 544.214,496.514 501.2,528.212 477.182,573.487 C 472.223,578.374 469.458,590.528 460.555,588.603 C 446.189,582.274 453.434,562.739 458.522,552.373 C 463.845,539.506 474.222,529.507 486.737,523.403 C 470.811,536.316 462.936,556.498 462.706,577 C 484.289,534.135 519.801,500.121 561.633,476.597 C 594.913,460.096 638.385,479.041 667.039,451.041 C 676.578,442.897 680.51,430.043 677.64,417.833 C 666.557,385.518 629.832,375.051 603.819,357.877 C 592.143,351.286 584.407,339.543 581.906,326.371 C 585.656,308.016 579.238,289.208 567.065,274.969 C 543.217,252.325 506.075,251.883 481.816,274.086 C 476.109,282.159 466.52,277.988 458.5,278.077 C 432.625,275.425 409.967,294.4 406.309,320.153 L 405.704,328 C 377.805,325.995 344.114,347.426 349.144,378.5 C 349.808,385.874 356.883,394.509 351.193,401.25 C 343.618,407.347 337.783,396.848 337.111,390.189 C 329.468,365.515 339.596,338.882 361.59,325.336 C 371.099,319.886 381.475,316.029 392.328,314.5 C 398.601,283.564 426.602,261.861 458.048,264.61 L 471.596,264.5 C 482.202,254.083 495.769,247.258 510.36,244.409 Z M 523.285,295.5 C 529.432,292.368 536.508,297.529 535.419,304.342 L 548.412,421.746 C 551.92,419.867 555.294,417.729 558.352,415.183 C 575.767,413.997 593.323,413.704 610.643,415.871 C 613.521,415.698 623.185,415.272 619.787,420.545 C 602.571,423.072 585.183,424.457 567.788,424 C 561.403,430.784 553.091,435.476 544.467,439 C 538.987,438.582 534.715,433.989 535.01,428.5 L 525.941,353.536 L 505.514,474.947 C 504.321,480.414 503.293,488.836 496.064,489 C 491.382,488.905 489.445,484.072 488.079,480.354 L 469.121,377.568 C 468.549,376.119 467.946,377.367 466.704,382.568 C 464.152,403.451 457.666,423.699 449.896,443.25 C 440.097,449.874 435.357,435.218 432.512,428.5 L 420.844,402 C 417.162,409.94 412.112,417.18 406.626,424 L 293.75,421.405 C 290.146,421.333 283.693,421.576 285,416.407 L 394,413.617 C 402.305,413.922 402.854,403.154 407.197,398.023 C 411.208,392.221 413.153,381.749 421.936,382 C 428.392,382.083 429.968,389.426 432.522,394 C 435.226,402.559 439.401,410.595 444.041,418.279 L 461.582,346.274 C 462.102,339.658 469.991,336.647 474.768,341.253 C 481.317,364.251 486.795,387.683 488.928,411.5 L 496.179,451 C 498.804,443.837 500.776,436.202 500.459,428.58 L 519.549,299.187 C 519.86,297.806 521.365,296.321 523.285,295.5 Z M 341.75,434.57 C 345.664,434 349.672,434.081 353.481,435.147 C 351.373,457.687 362.321,479.259 380.519,492.725 C 400.776,505.099 430.634,493.62 446.093,514.635 C 455.497,534.034 452.854,557.328 438.084,573.032 C 434.48,579.707 425.631,576.272 425,569.68 C 432.791,560.518 436.508,548.509 437.978,536.572 C 438.346,526.557 431.814,517.544 422.096,515.097 C 399.884,517.329 378.027,509.203 360.633,495.211 C 345.014,479.146 337.844,456.633 341.75,434.57 Z M 751.455,657.455 C 758.113,649.677 770.323,661.887 762.545,668.545 C 755.887,676.323 743.677,664.113 751.455,657.455 Z M 650.487,657.746 C 665.108,653.404 680.824,656.314 693.489,664.814 C 692.518,668.37 690.294,671.449 687.634,674 C 671.927,665.294 647.347,665.2 639.893,684.619 C 634.081,698.273 640.276,713.867 653.258,721.054 C 661.927,724.016 671.37,724.184 679.937,720.94 L 680.219,709.22 C 680.495,697.693 680.54,697.494 682.907,697.16 C 686.624,697.164 690.331,697.521 694,698.123 L 694,727.772 C 672.104,743.043 642.29,736.345 627.286,714.265 C 618.272,695.931 624.119,673.916 640.874,662.228 L 650.487,657.746 Z M 208,696 L 208,657 L 220.715,657 L 248.277,703.364 C 249.402,704.903 250.043,704.218 253.952,697.3 L 277.58,657.5 L 290.5,657.5 L 290,735.1 L 278.5,734.5 L 278.136,679 L 256.5,713.284 C 254.705,717.698 249.233,722.342 244.803,718.325 L 223.314,683.615 C 220.741,679.092 220.49,678.907 219.916,681.115 L 218.877,735 L 208,735 Z M 513,696 L 513,657 L 528,657 L 528,735 L 513,735 Z M 570.569,657.889 C 575.686,656.968 580.908,656.499 586.084,657 L 619.218,734.449 L 604.182,735 L 596.662,716 L 560.5,716.028 L 552.775,735 L 538,734.708 L 570.569,657.889 Z M 375.235,663.119 L 380.25,662.727 C 380.987,668.454 381.351,674.237 381,680 L 397,680 L 397,688.916 L 381.5,689.5 C 379.023,700.655 380.385,712.376 383.149,723.462 C 386.433,728.224 392.88,724.882 397.638,725.109 C 398.333,727.68 400.258,730.401 399.316,733.084 C 390.047,738.506 378.335,735.906 371.3,727.794 C 368.912,715.016 367.533,701.934 368.838,689 C 365.77,688.491 360.511,690.581 359.43,686.579 C 358.187,682.93 359.852,679.331 364.259,680.195 L 369,679.89 C 368.38,674.764 368.928,669.564 369.985,664.509 L 375.235,663.119 Z M 314.557,681.379 C 325.659,677.636 342.07,677.047 348.849,688.498 C 351.551,703.995 352.165,719.797 350.346,735.422 C 345.373,736.046 340.803,732.564 340.153,727.595 C 332.786,735.803 320.724,737.541 310.823,732.68 C 302.037,726.682 301.999,713.882 310.675,707.725 C 319.568,703.394 329.408,701.16 339.263,702 C 340.457,690.401 327.708,684.732 318.173,689.879 C 314.828,690.326 310.06,694.276 309.021,689.051 C 306.258,684.503 310.992,682.767 314.557,681.379 Z M 421.336,680.634 C 436.346,674.621 457.202,683.92 456.346,701.751 L 456.5,708.5 C 443.629,707.735 430.706,708.632 417.903,710.157 C 416.796,721.758 430.282,728.916 440.5,725.802 C 444.436,725.687 448.86,721.139 452.44,723.16 L 454.802,727.268 C 455.954,729.989 455.875,730.082 450.237,732.686 C 435.551,740.066 417.864,734.955 408.441,721.489 C 400.455,706.673 406.39,688.376 421.336,680.634 Z M 488.425,680.417 C 492.517,679.282 496.761,678.751 501,679 L 501,690.256 C 494.467,687.998 487.297,690.52 483.317,696.171 C 480.906,708.958 479.515,722.055 480.838,735 L 469,735 L 469,680 C 472.976,680.361 479.569,678.234 479.933,684.17 L 481.182,688.34 C 482.749,685.044 485.329,682.35 488.425,680.417 Z M 728.419,680.861 C 732.214,679.159 736.473,678.462 740.5,679.5 L 741.094,690.806 C 734.58,690.438 725.849,690.068 723.038,697.421 C 720.545,709.776 719.235,722.52 721,735 L 708,735 L 708,680 C 711.699,680.754 718.397,677.843 719.564,682.75 C 719.874,685.14 720.982,690.09 723.24,685.633 L 728.419,680.861 Z M 787.386,680.739 C 796.98,677.581 807.451,679.019 816,684.398 C 814.62,686.691 814.573,691.654 811.194,691.668 C 805.092,689.03 791.706,684.483 790,694.099 C 790.326,700.349 798.66,700.147 802.709,702.975 C 814.463,704.622 820.516,717.825 814.265,727.913 C 802.874,737.116 786.755,738.056 775,729.324 L 778.995,721.09 C 785.487,725.987 794.083,726.865 801.834,724.404 C 805.235,721.558 804.225,716.172 800,714.824 C 791.727,710.468 777.435,708.51 777.224,696.686 C 776.232,689.574 780.493,682.75 787.386,680.739 Z M 750,707.5 L 750,680 L 763,680 L 763,735 L 750,735 Z" stroke="#fcfdfd" stroke-width="1" stroke-linejoin="round" stroke-linecap="round"/>
</svg>